<?xml version="1.0" encoding="utf-8"?>
<!-- Generator: Adobe Illustrator 24.0.2, SVG Export Plug-In . SVG Version: 6.00 Build 0)  -->
<svg version="1.1" id="Layer_1" xmlns="http://www.w3.org/2000/svg" xmlns:xlink="http://www.w3.org/1999/xlink" x="0px" y="0px"
	 viewBox="0 0 150 150" style="enable-background:new 0 0 150 150;" xml:space="preserve">
<style type="text/css">
	.st0{fill:none;stroke:#000000;stroke-width:4.8133;stroke-linecap:round;stroke-miterlimit:10;}
	.st1{fill:none;stroke:#000000;stroke-width:4;stroke-linecap:round;stroke-miterlimit:10;}
	.st2{fill:none;stroke:#000000;stroke-width:4;stroke-miterlimit:10;}
	.st3{fill:none;stroke:#000000;stroke-width:4.0932;stroke-linecap:round;stroke-miterlimit:10;}
</style>
<path class="st0" d="M108.59,101.18"/>
<path class="st0" d="M111.35,189.8"/>
<g>
</g>
<g>
	<line class="st1" x1="145.31" y1="59.68" x2="112.07" y2="59.68"/>
	<line class="st1" x1="128.69" y1="43.93" x2="128.69" y2="75.18"/>
</g>
<circle class="st2" cx="73.09" cy="36.05" r="32.74"/>
<path class="st3" d="M112.08,98.88"/>
<path class="st3" d="M109.72,187.5"/>
<g>
	<path class="st3" d="M128.34,86.56c0,5.23,0.19,4.11,0.19,8.3l-0.21,30.1c0.05,15.65,0.06,17.93-17.92,17.93H89.03l-15.46-0.18
		H33.76c-17.53-1.24-18.39,2.53-18.39-17.93V98.78c0-0.14,0.02-0.29,0.01-0.43C14.67,84.3,25.52,69.91,37.9,65.54"/>
</g>
</svg>
