<?xml version="1.0" encoding="utf-8"?>
<!-- Generator: Adobe Illustrator 24.0.1, SVG Export Plug-In . SVG Version: 6.00 Build 0)  -->
<svg version="1.1" id="Layer_1" xmlns="http://www.w3.org/2000/svg" xmlns:xlink="http://www.w3.org/1999/xlink" x="0px" y="0px"
	 viewBox="0 0 480.2 480.1" style="enable-background:new 0 0 480.2 480.1;" xml:space="preserve">
<style type="text/css">
	.st0{fill:#3B936F;}
</style>
<title>dance</title>
<g id="Outline_copy">
	<path class="st0" d="M250.4,205.5c-4.4-0.5-8.3,2.6-8.9,7v0.1l-1.3,12.3c-0.3,3-2.4,5.6-5.3,6.6l-53.3,18.6c-3.4,1.2-5.6,4.4-5.4,8
		v71.4c0,2.1,0.8,4.2,2.3,5.7l43.4,43.5c1.4,1.4,2.2,3.3,2.2,5.3v72c0,4.4-3.6,8-8,8s-8-3.6-8-8v-65.4c0-2.1-0.8-4.2-2.3-5.7
		l-46.3-46.6c-1.5-1.5-3.6-2.3-5.7-2.3h-17.7c-4.4,0-8,3.6-8,8v64c0,2.7-1.4,5.2-3.6,6.6l-72,48c-3.9,2.1-8.7,0.6-10.8-3.3
		c-1.8-3.4-1-7.6,2-10l64.8-43.3c2.2-1.5,3.6-4,3.6-6.6V344c0-4.4-3.6-8-8-8s-8,3.6-8,8v51.1L34.9,436c-11,7.3-14.1,22.2-6.7,33.3
		s22.2,14.1,33.3,6.7l0,0l72-48c6.7-4.4,10.7-12,10.7-20v-56h6.3l41.7,41.9V456c0,13.3,10.7,24,24,24s24-10.7,24-24v-72
		c0-6.4-2.5-12.5-7-17l-41-41.2v-62.4l48-16.7c8.7-3,15-10.8,16-20l1.4-12.2c0.5-4.4-2.6-8.3-7-8.9L250.4,205.5z"/>
	<path class="st0" d="M87.2,304l9-7.2V312c0,4.4,3.6,8,8,8s8-3.6,8-8v-32c0-4.3-3.4-7.9-7.7-7.9c-1.7,0-3.4,0.5-4.8,1.6l-21.9,17.4
		c-1.7,1.4-4,2-6.2,1.7l-48-7.3h-1.3c-4.2-1.3-6.5-5.8-5.2-10.1c1.1-3.5,4.5-5.8,8.2-5.5l41.2,6.2c2.2,0.3,4.4-0.2,6.2-1.6
		l41.1-32.7c2.1-0.9,4.2-1.5,6.4-1.8h8c4.4,0,8-3.6,8-8v-3.4c0-3.2-1.9-6.1-4.8-7.4c-16.2-7.1-23.6-25.9-16.5-42.1
		s25.9-23.6,42.1-16.5s23.6,25.9,16.5,42.1c-3.2,7.4-9.1,13.3-16.5,16.5c-2.9,1.3-4.8,4.2-4.8,7.4v3.4c0,4.4,3.6,8,8,8h5
		c2.1,0,4-0.8,5.5-2.2c0.8-0.8,1.8-1.4,2.9-1.8l46.5-16c2.9-1,5-3.6,5.4-6.6l6.8-62.2c0.5-4.3,4.4-7.5,8.8-7
		c4.4,0.5,8.3-2.7,8.8-7.1l0,0c0.5-4.4-2.7-8.3-7-8.8c-13.2-1.5-25.1,7.9-26.6,21c0,0,0,0,0,0.1v0.1l-6.3,57l-23.4,8
		c12.4-23.4,3.5-52.5-19.9-64.9s-52.5-3.5-64.9,19.9c-9.9,18.7-6.4,41.7,8.6,56.6l-3.9,1.5l-1.8,1l-39.2,31.2L27.6,254
		c-13.1-1.8-25.2,7.5-27,20.6c-1.5,11.3,5.2,22.2,16,25.9c1.3,0.4,2.5,0.8,3.8,1l48,7.3C75.1,309.9,81.9,308.1,87.2,304z"/>
	<path class="st0" d="M471.7,69.7c-5.3-4.7-12.5-6.8-19.5-5.7c-11.8,2.3-20.3,12.8-20,24.9V192H412c17.5-19.8,15.6-50.1-4.3-67.6
		s-50.1-15.6-67.6,4.3c-13.2,15-15.7,36.6-6.3,54.2l-23.4-8l-6.2-56c-0.9-12.6-11.3-22.5-23.9-22.9l0,0
		c-13.5,0.2-24.3,11.3-24.1,24.7c0,0.6,0,1.3,0.1,1.9l8,72c1,9.2,7.3,17,16,20l48,16.7v62.5l-41,41.2c-4.5,4.5-7,10.6-7,17v71.1
		c-0.3,12.1,8.2,22.6,20,24.9c13.1,2.2,25.5-6.6,27.7-19.7l0,0c0.2-1.4,0.4-2.9,0.3-4.3v-62.1L370,320h6.3v135.1
		c-0.3,12.1,8.2,22.6,20,24.9c1.3,0.1,2.7,0.1,4,0c13.3,0,24-10.7,24-24V264c0-4.4-3.6-8-8-8s-8,3.6-8,8v192
		c0.1,4.4-3.5,8.1-7.9,8.1l0,0c-0.5,0-1,0-1.5-0.1c-4-1-6.8-4.7-6.6-8.8V312c0-4.4-3.6-8-8-8h-17.7c-2.1,0-4.2,0.8-5.7,2.3
		L314.5,353c-1.5,1.5-2.3,3.6-2.3,5.7V424c0.1,4.4-3.5,8.1-7.9,8.1l0,0c-0.5,0-1,0-1.5-0.1c-4-1-6.8-4.7-6.6-8.8V352
		c0-2.1,0.8-4.2,2.3-5.7l43.4-43.5c1.5-1.5,2.3-3.6,2.3-5.7v-71.4c0-3.4-2.1-6.5-5.4-7.6l-53.3-18.6c-2.9-1-4.9-3.6-5.3-6.6l-8-72
		c-0.5-4.4,2.7-8.3,7.1-8.8c0.3,0,0.6,0,0.8,0c4.2,0.4,7.6,3.8,8,8l6.7,61.1c0.4,3.1,2.4,5.6,5.4,6.6l46.5,16c1.1,0.4,2.1,1,2.9,1.8
		c1.5,1.4,3.5,2.2,5.5,2.2h5c4.4,0,8-3.6,8-8v-3.4c0-3.2-1.9-6.1-4.8-7.4c-16.2-7.1-23.6-25.9-16.5-42.1s25.9-23.6,42.1-16.5
		s23.6,25.9,16.5,42.1c-3.2,7.4-9.1,13.3-16.5,16.5c-2.9,1.3-4.8,4.2-4.8,7.4v3.5c0,4.4,3.6,8,8,8h40c8.8,0,16-7.2,16-16v-103
		c-0.2-4.1,2.6-7.8,6.6-8.8c4.4-0.8,8.6,2.1,9.4,6.5c0.1,0.5,0.1,0.9,0.1,1.4v104c0,17.7-14.3,32-32,32h-16c-4.4,0-8,3.6-8,8
		s3.6,8,8,8h16c26.5,0,48-21.5,48-48V88C480.2,80.9,477.1,74.2,471.7,69.7z"/>
	<path class="st0" d="M24.2,96c13.3,0,24-10.7,24-24V48h48v17.4C83.7,61,70,67.6,65.6,80.1s2.1,26.2,14.6,30.6
		c12.5,4.4,26.2-2.1,30.6-14.6c0.9-2.6,1.4-5.3,1.4-8.1V8c0-4.4-3.6-8-8-8h-64c-4.4,0-8,3.6-8,8v41.4C19.7,44.9,6,51.4,1.4,63.8
		s2,26.2,14.4,30.8C18.5,95.5,21.3,96,24.2,96z M88.2,96c-4.4,0-8-3.6-8-8s3.6-8,8-8s8,3.6,8,8S92.6,96,88.2,96z M48.2,16h48v16h-48
		C48.2,32,48.2,16,48.2,16z M24.2,64c4.4,0,8,3.6,8,8s-3.6,8-8,8s-8-3.6-8-8S19.8,64,24.2,64z"/>
	<path class="st0" d="M314.3,87c3.8,2.5,8.3,3.9,12.9,3.9c8.1-0.1,15.7-4.1,20.3-10.9l0,0l21.4-33.8l33.8,21.5
		c3.7,2.4,8.6,1.3,11-2.4l17.2-27c1.3-1.8,1.8-4.1,1.3-6.4c-0.5-2.1-1.8-3.8-3.5-5L388,1.3c-3.7-2.4-8.6-1.3-11,2.4l-16.8,27
		l-14.1,21.5c-1.7-2.2-3.7-4-6-5.5c-11.5-6.5-26.2-2.4-32.7,9.1C301.4,66.4,304.4,79.8,314.3,87z M386.3,19l27,17.2l-8.7,13.5
		l-27-17.2L386.3,19z M320.2,62.6c1.5-2.3,4.1-3.7,6.8-3.7c1.5,0,3,0.4,4.3,1.2c3.6,2.4,4.7,7.3,2.4,11l0,0c-2.4,3.7-7.3,4.8-11,2.5
		l0,0C319,71.2,317.9,66.3,320.2,62.6L320.2,62.6z"/>
	<path class="st0" d="M160.2,74.6c2.4,11,12.1,18.8,23.4,18.9c1.7,0,3.5-0.2,5.2-0.6c6.2-1.4,11.6-5.1,15-10.5l0,0L229.6,42
		c2.6-3.6,1.8-8.6-1.8-11.2s-8.6-1.8-11.2,1.8c-0.2,0.2-0.3,0.5-0.5,0.7l-13.8,21.4c-1.6-2.2-3.6-4-5.9-5.5
		c-11.2-7.1-26-3.9-33.1,7.3C159.9,61.9,158.7,68.4,160.2,74.6z M176.8,65.2c1.1-1.8,2.9-3.1,5-3.5c0.6-0.1,1.2-0.1,1.8,0
		c4.4,0,8,3.6,7.9,8.1l0,0c0,1.5-0.4,2.9-1.2,4.2l0,0c-2.4,3.7-7.3,4.8-11,2.5c-3.7-2.4-4.8-7.3-2.5-11V65.2z"/>
	<path class="st0" d="M272.2,64c4.4,0,8-3.6,8-8V24c0-4.4-3.6-8-8-8s-8,3.6-8,8v32C264.2,60.4,267.8,64,272.2,64z"/>
	<path class="st0" d="M24.2,160v24c0,4.4,3.6,8,8,8s8-3.6,8-8v-24c0-4.4-3.6-8-8-8S24.2,155.6,24.2,160z"/>
	<circle class="st0" cx="192.2" cy="128" r="8"/>
	<circle class="st0" cx="152.2" cy="16" r="8"/>
</g>
</svg>
