<?xml version="1.0" encoding="utf-8"?>
<!-- Generator: Adobe Illustrator 24.0.2, SVG Export Plug-In . SVG Version: 6.00 Build 0)  -->
<svg version="1.1" id="Layer_1" xmlns="http://www.w3.org/2000/svg" xmlns:xlink="http://www.w3.org/1999/xlink" x="0px" y="0px"
	 viewBox="0 0 150 150" style="enable-background:new 0 0 150 150;" xml:space="preserve">
<style type="text/css">
	.st0{fill:#FFFFFF;stroke:#000000;stroke-width:5;stroke-miterlimit:10;}
	.st1{fill:#FFFFFF;stroke:#000000;stroke-width:5;stroke-linecap:round;stroke-linejoin:round;stroke-miterlimit:10;}
	.st2{fill:none;stroke:#000000;stroke-width:5;stroke-linecap:round;stroke-linejoin:round;stroke-miterlimit:10;}
	.st3{fill:#FFFFFF;stroke:#000000;stroke-width:5;stroke-linejoin:bevel;stroke-miterlimit:10;}
</style>
<g>
	<g>
		<path class="st0" d="M102.46,143.44H31.13c-7.68,0-13.96-6.28-13.96-13.96V33.57c0-7.68,6.28-13.96,13.96-13.96l45.18-1.08
			c7.48,6.12,35.04,39.35,40.1,44.72v66.23C116.42,137.16,110.14,143.44,102.46,143.44z"/>
		<path class="st1" d="M76.31,19.57v37.22c0,3.65,2.34,6.61,5.23,6.61h34.24L76.31,19.57z"/>
		<line class="st2" x1="32.54" y1="81.35" x2="85.5" y2="81.35"/>
		<line class="st2" x1="32.54" y1="98.79" x2="74.66" y2="98.79"/>
		<line class="st2" x1="32.54" y1="118.67" x2="70.5" y2="118.67"/>
	</g>
	<g>
		<path class="st3" d="M125.55,128.81H54.22c-7.68,0-13.96-6.28-13.96-13.96V18.94c0-7.68,6.28-13.96,13.96-13.96L99.4,4.9
			c7.48,6.12,35.04,38.35,40.1,43.72v66.23C139.51,122.53,133.22,128.81,125.55,128.81z"/>
		<path class="st1" d="M99.4,5.99v37.22c0,3.65,2.34,6.61,5.23,6.61h34.24L99.4,5.99z"/>
		<line class="st2" x1="55.63" y1="67.77" x2="108.59" y2="67.77"/>
		<line class="st2" x1="55.63" y1="85.21" x2="97.75" y2="85.21"/>
		<line class="st2" x1="55.63" y1="105.09" x2="93.59" y2="105.09"/>
	</g>
</g>
</svg>
