<?xml version="1.0" encoding="utf-8"?>
<!-- Generator: Adobe Illustrator 24.0.1, SVG Export Plug-In . SVG Version: 6.00 Build 0)  -->
<svg version="1.1" id="Layer_1" xmlns="http://www.w3.org/2000/svg" xmlns:xlink="http://www.w3.org/1999/xlink" x="0px" y="0px"
	 viewBox="0 0 150 150" style="enable-background:new 0 0 150 150;" xml:space="preserve">
<style type="text/css">
	.st0{fill:none;stroke:#000000;stroke-width:5;stroke-miterlimit:10;}
	.st1{stroke:#000000;stroke-width:5;stroke-miterlimit:10;}
</style>
<g>
	<g>
		<g>
			<path class="st0" d="M61.7,61.7"/>
			<path class="st1" d="M64.2,54.2h15.5c1.4,0,2.6,1.2,2.6,2.6v49.9c0,1.4,1.2,2.6,2.6,2.6h1.5c1.9,0,3.5,1.6,3.5,3.5l0,0
				c0,1.9-1.6,3.5-3.5,3.5H64.2c-1.5,0-2.6-1.2-2.6-2.6v-2.4c0-1.4,1.1-2.6,2.6-2.6l7-0.2c1.4,0,2.6-1.2,2.6-2.6l0.1-40.3
				c0-1.3-1-2.4-2.3-2.6l-7.6-1c-1.3-0.2-2.3-1.3-2.3-2.6v-2.7C61.5,55.3,62.7,54.2,64.2,54.2z"/>
			<circle class="st1" cx="75.7" cy="38.4" r="8.5"/>
			<circle class="st0" cx="75.7" cy="75.1" r="67.7"/>
		</g>
	</g>
</g>
</svg>
